<svg xmlns="http://www.w3.org/2000/svg" width="1467" height="282" fill="none" xmlns:v="https://vecta.io/nano"><path d="M561.949 117.178c-3.907 0-6.785-.822-8.636-2.467-1.919-1.645-2.878-4.284-2.878-7.917V17.556c-1.508.137-3.359.411-5.552.823-2.262.411-4.592.994-6.991 1.748-2.468.754-4.901 1.645-7.3 2.673-2.467 1.097-4.66 2.33-6.579 3.701s-3.496 2.913-4.73 4.626c-1.165 1.713-1.747 3.633-1.747 5.757 0 1.508.171 2.707.514 3.598.411.891.891 1.576 1.439 2.056.48.411.994.685 1.542.822s.925.206 1.131.206c1.234 0 2.193-.206 2.879-.617a15.18 15.18 0 0 0 2.056-1.337l1.748-1.234c.548-.411 1.165-.617 1.85-.617.549 0 1.165.137 1.851.411.617.274 1.199.685 1.748 1.234s.993 1.302 1.336 2.262c.343.891.514 1.988.514 3.29 0 1.851-.343 3.461-1.028 4.832-.754 1.371-1.679 2.502-2.776 3.393a10.62 10.62 0 0 1-4.009 2.056c-1.44.48-2.879.72-4.318.72-2.262 0-4.318-.411-6.169-1.234-1.782-.754-3.29-1.816-4.523-3.187-1.303-1.371-2.262-2.947-2.879-4.729-.685-1.851-1.028-3.804-1.028-5.86 0-5.483 1.508-10.212 4.523-14.188 3.016-4.044 7.163-7.368 12.44-9.972 5.209-2.673 11.309-4.661 18.3-5.963 6.991-1.234 14.462-1.851 22.413-1.851l11.103.103 9.87.308c3.015.137 5.585.308 7.71.514 2.193.206 3.77.411 4.729.617s1.714.548 2.262 1.028c.549.411.96.925 1.234 1.542a7.56 7.56 0 0 1 .617 1.748c.068.617.103 1.268.103 1.953 0 .48-.069 1.062-.206 1.748a9.27 9.27 0 0 1-.617 1.953 4.29 4.29 0 0 1-1.131 1.542 2.09 2.09 0 0 1-1.542.617c-.343 0-.72-.137-1.131-.411a25.18 25.18 0 0 0-1.645-1.234c-.685-.48-1.645-1.028-2.878-1.645-1.166-.617-2.708-1.165-4.627-1.645-1.987-.548-4.386-1.028-7.196-1.439s-6.237-.685-10.281-.822v89.34c0 3.633-.96 6.272-2.879 7.917-1.851 1.645-4.729 2.467-8.636 2.467zm61.788-98.902v38.142c1.714-2.468 3.667-4.695 5.86-6.683a37.99 37.99 0 0 1 2.982-2.467c1.096-.754 2.262-1.439 3.495-2.056 1.234-.685 2.536-1.199 3.907-1.542a15.65 15.65 0 0 1 4.318-.617c3.153 0 5.963.617 8.43 1.851s4.558 3.29 6.272 6.169c1.645 2.81 2.913 6.58 3.804 11.309s1.336 10.589 1.336 17.58c0 6.785-.583 12.68-1.748 17.683-1.233 5.004-2.844 9.253-4.832 12.749-1.987 3.564-4.215 6.442-6.682 8.636s-4.969 3.941-7.505 5.243c-2.536 1.234-4.969 2.125-7.3 2.673-2.33.48-4.352.72-6.065.72l-.72-2.879c2.125-.48 4.009-1.439 5.654-2.879 1.645-1.37 3.016-3.666 4.113-6.888 1.165-3.221 2.022-7.539 2.57-12.954.617-5.414.925-12.405.925-20.973 0-5.963-.274-10.692-.822-14.188-.549-3.564-1.268-6.271-2.159-8.122-.823-1.851-1.782-3.05-2.879-3.598-1.097-.617-2.227-.925-3.393-.925-1.37 0-2.57.377-3.598 1.131a11.46 11.46 0 0 0-2.673 2.467c-.754.959-1.405 1.885-1.953 2.776-.549.96-.994 1.679-1.337 2.159v46.881c0 .617-.103 1.371-.308 2.262s-.686 1.713-1.44 2.467c-.685.754-1.747 1.405-3.187 1.954s-3.392.822-5.86.822-4.42-.308-5.86-.925c-1.508-.548-2.604-1.234-3.29-2.056-.754-.754-1.233-1.577-1.439-2.468-.137-.822-.206-1.508-.206-2.056V19.099c0-1.371-.342-2.57-1.028-3.598-.617-1.028-1.679-1.542-3.187-1.542-.754 0-1.439.137-2.056.411-.548.274-1.165.651-1.851 1.131l-1.439-1.645a54.76 54.76 0 0 1 3.598-2.673c1.303-.822 2.742-1.576 4.318-2.262 1.577-.617 3.256-1.165 5.038-1.645 1.782-.411 3.667-.617 5.655-.617 3.015 0 5.38.411 7.093 1.234 1.645.822 2.879 1.851 3.701 3.084.823 1.165 1.303 2.433 1.44 3.804.205 1.302.308 2.467.308 3.496zm100.856 49.143l-27.759 16.347c0 1.508.24 3.153.72 4.935.411 1.713 1.028 3.461 1.85 5.243.892 1.782 1.954 3.496 3.188 5.14 1.233 1.576 2.673 3.016 4.318 4.318 1.576 1.233 3.358 2.227 5.346 2.981s4.146 1.131 6.477 1.131c1.645 0 3.152-.171 4.523-.514 1.439-.411 2.742-.925 3.907-1.542a39.24 39.24 0 0 0 3.598-2.262 117.13 117.13 0 0 0 3.29-2.776l1.851 1.645c-1.097 1.44-2.502 3.016-4.216 4.729-1.644 1.782-3.666 3.427-6.065 4.935s-5.209 2.776-8.431 3.804c-3.152 1.028-6.785 1.542-10.897 1.542-4.044 0-7.985-.754-11.823-2.261-3.907-1.508-7.368-3.736-10.384-6.683-2.947-2.947-5.346-6.614-7.197-11.001-1.782-4.387-2.673-9.527-2.673-15.421 0-4.318.549-8.225 1.645-11.72 1.028-3.564 2.468-6.785 4.318-9.664s4.01-5.38 6.477-7.505c2.468-2.193 5.072-4.01 7.814-5.449 2.741-1.371 5.517-2.433 8.327-3.187s5.552-1.131 8.225-1.131c3.427 0 6.443.377 9.047 1.131 2.536.754 4.661 1.782 6.374 3.084 1.714 1.234 3.016 2.673 3.907 4.318.822 1.713 1.234 3.461 1.234 5.243 0 2.262-.651 4.249-1.954 5.963-1.233 1.782-2.913 3.324-5.037 4.626zm-28.478 10.589l14.907-8.533c.548-.343 1.028-.685 1.439-1.028s.72-.754.925-1.234c.275-.548.48-1.165.617-1.851.069-.754.103-1.679.103-2.776 0-1.165-.103-2.433-.308-3.804a16.98 16.98 0 0 0-1.337-4.112c-.617-1.234-1.405-2.296-2.364-3.187-.891-.822-1.988-1.234-3.29-1.234-1.714 0-3.187.514-4.421 1.542-1.165 1.028-2.125 2.33-2.879 3.907s-1.37 3.393-1.85 5.449a82.69 82.69 0 0 0-1.028 6.169c-.206 2.056-.343 4.01-.412 5.86l-.102 4.832zM827.71 23.519v83.275c0 3.633-.96 6.272-2.879 7.917-1.85 1.645-4.729 2.467-8.636 2.467-3.975 0-6.888-.822-8.738-2.467s-2.776-4.284-2.776-7.917V22.8c0-2.605-1.782-3.907-5.346-3.907-2.605 0-5.209.411-7.814 1.234-2.673.754-5.072 1.782-7.196 3.084-2.125 1.371-3.873 2.982-5.244 4.832s-2.056 3.838-2.056 5.963c0 1.508.206 2.707.617 3.598s.857 1.576 1.337 2.056c.548.411 1.096.685 1.644.822.549.069.926.103 1.131.103 1.166 0 2.125-.171 2.879-.514a15.19 15.19 0 0 0 2.056-1.337c.617-.411 1.2-.822 1.748-1.234.48-.411 1.097-.617 1.85-.617.549 0 1.131.137 1.748.411s1.2.685 1.748 1.234.994 1.302 1.337 2.262c.411.891.616 1.988.616 3.29 0 1.851-.377 3.461-1.131 4.832-.685 1.371-1.61 2.502-2.775 3.393-1.166.96-2.468 1.645-3.907 2.056-1.508.48-2.982.72-4.421.72-2.262 0-4.284-.411-6.066-1.234-1.782-.754-3.324-1.816-4.626-3.187a15.11 15.11 0 0 1-2.879-4.729c-.617-1.851-.925-3.804-.925-5.86 0-3.907.72-7.334 2.159-10.281 1.439-3.016 3.496-5.586 6.169-7.711 2.604-2.125 5.757-3.907 9.458-5.346s7.813-2.57 12.337-3.393c4.455-.891 9.253-1.508 14.393-1.851s10.487-.514 16.038-.514c13.366 0 23.509 2.57 30.432 7.711 6.854 5.14 10.281 12.508 10.281 22.104 0 4.661-.617 8.807-1.851 12.44-1.234 3.564-2.878 6.648-4.935 9.253-2.124 2.604-4.523 4.729-7.196 6.374-2.742 1.645-5.552 2.81-8.431 3.495-2.947.685-5.894.96-8.841.823-2.879-.137-5.586-.685-8.122-1.645l.925-2.981c3.564 1.097 6.477 1.131 8.739.103s4.044-2.81 5.346-5.346c1.302-2.604 2.193-5.86 2.673-9.767.48-3.975.72-8.327.72-13.057 0-3.564-.377-6.82-1.131-9.767-.754-2.879-1.782-5.346-3.084-7.402s-2.811-3.667-4.524-4.832-3.53-1.748-5.449-1.748c-1.439 0-2.639.24-3.598.72-.96.411-1.714.96-2.262 1.645s-.925 1.405-1.131 2.159-.343 1.508-.411 2.262zm76.592 31.254v54.9c0 .617-.102 1.371-.308 2.262s-.685 1.713-1.439 2.467c-.823.754-1.954 1.405-3.393 1.954s-3.393.822-5.86.822-4.421-.308-5.86-.925c-1.371-.548-2.433-1.234-3.187-2.056-.686-.754-1.097-1.577-1.234-2.468-.206-.822-.308-1.508-.308-2.056v-54.18c0-1.371-.309-2.57-.926-3.598s-1.679-1.542-3.187-1.542c-.822 0-1.508.171-2.056.514-.548.274-1.165.651-1.85 1.131l-1.44-1.748c1.097-.891 2.296-1.782 3.599-2.673 1.37-.822 2.81-1.576 4.317-2.262 1.577-.617 3.256-1.131 5.038-1.542 1.782-.48 3.633-.72 5.552-.72 3.084 0 5.449.411 7.094 1.234 1.713.822 2.981 1.851 3.804 3.084.753 1.165 1.233 2.433 1.439 3.804.137 1.371.205 2.57.205 3.598zm-23.748-27.656c0-1.371.308-2.639.925-3.804.548-1.165 1.371-2.193 2.467-3.084 1.028-.891 2.228-1.611 3.599-2.159 1.37-.48 2.878-.72 4.523-.72 1.577 0 3.084.24 4.524.72 1.371.548 2.57 1.268 3.598 2.159s1.816 1.919 2.365 3.084c.617 1.165.925 2.433.925 3.804 0 1.302-.308 2.536-.925 3.701-.549 1.234-1.337 2.262-2.365 3.084-1.028.891-2.227 1.576-3.598 2.056-1.44.548-2.947.822-4.524.822-1.645 0-3.153-.274-4.523-.822-1.371-.48-2.571-1.165-3.599-2.056a7.72 7.72 0 0 1-2.467-3.084c-.617-1.165-.925-2.399-.925-3.701zm82.761 53.975c0-5.963-.274-10.692-.823-14.188-.48-3.564-1.165-6.271-2.056-8.122s-1.885-3.05-2.981-3.598c-1.097-.617-2.194-.925-3.29-.925-1.371 0-2.57.377-3.599 1.131-1.096.685-2.021 1.508-2.775 2.467a29.94 29.94 0 0 0-1.954 2.776c-.548.96-1.028 1.679-1.439 2.159v46.881c0 .617-.069 1.371-.206 2.262-.205.891-.685 1.713-1.439 2.467-.685.754-1.748 1.405-3.187 1.954s-3.393.822-5.86.822-4.421-.308-5.86-.925c-1.44-.548-2.536-1.234-3.29-2.056-.754-.754-1.234-1.577-1.44-2.468-.137-.822-.205-1.508-.205-2.056v-54.18c0-1.371-.343-2.57-1.028-3.598-.617-1.028-1.679-1.542-3.187-1.542-.754 0-1.44.171-2.056.514-.549.274-1.131.651-1.748 1.131l-1.542-1.748c1.096-.891 2.33-1.782 3.701-2.673 1.302-.822 2.741-1.576 4.318-2.262 1.508-.617 3.153-1.131 4.935-1.542 1.782-.48 3.666-.72 5.654-.72 3.016 0 5.38.514 7.094 1.542 1.645 1.028 2.878 2.228 3.701 3.598.822 1.439 1.302 2.913 1.439 4.421s.206 2.776.206 3.804c1.782-2.468 3.77-4.695 5.963-6.683.891-.822 1.885-1.645 2.981-2.467 1.097-.754 2.262-1.439 3.496-2.056a15.99 15.99 0 0 1 3.907-1.542c1.439-.411 2.878-.617 4.317-.617 3.153 0 5.963.617 8.431 1.851s4.558 3.29 6.271 6.169c1.645 2.81 2.913 6.58 3.804 11.309s1.337 10.589 1.337 17.58c0 6.785-.617 12.68-1.851 17.683-1.165 5.004-2.742 9.253-4.729 12.749-1.988 3.564-4.215 6.442-6.683 8.636s-4.969 3.941-7.505 5.243c-2.536 1.234-4.969 2.125-7.299 2.673-2.331.48-4.318.72-5.963.72l-.823-2.879c1.44-.274 2.742-.788 3.907-1.542 1.234-.685 2.33-1.714 3.29-3.084s1.816-3.085 2.57-5.141 1.405-4.66 1.954-7.813.959-6.888 1.233-11.206c.206-4.249.309-9.219.309-14.907zm57.885-62.816v43.899c1.64-2.193 3.39-4.421 5.24-6.683a57.05 57.05 0 0 1 6.07-6.169c2.12-1.782 4.45-3.29 6.99-4.524 2.53-1.165 5.31-1.748 8.32-1.748 2.68 0 4.9.548 6.69 1.645 1.78 1.028 3.22 2.296 4.31 3.804 1.1 1.439 1.89 2.947 2.37 4.524.41 1.645.62 3.016.62 4.112 0 2.056-.28 4.215-.83 6.477-.55 2.193-1.44 4.386-2.67 6.58-1.3 2.193-3.05 4.284-5.24 6.271-2.13 2.056-4.84 3.941-8.13 5.654 4.39 9.321 8.68 17.34 12.86 24.058s8.19 12.234 12.02 16.552c3.91 4.318 7.65 7.539 11.21 9.664 3.56 2.056 6.96 3.084 10.18 3.084.55 0 1.1-.068 1.64-.205a10.28 10.28 0 0 0 1.55-.515 18.07 18.07 0 0 0 1.64-.719l1.34 2.467c-1.3.686-2.61 1.337-3.91 1.954-1.3.685-2.78 1.233-4.42 1.645-1.71.479-3.67.856-5.86 1.13s-4.83.412-7.92.412a35.97 35.97 0 0 1-8.12-.926c-2.74-.685-5.45-1.85-8.12-3.495-2.74-1.714-5.52-3.975-8.33-6.785-2.74-2.811-5.58-6.375-8.53-10.693s-5.96-9.458-9.05-15.421c-3.08-5.894-6.3-12.851-9.66-20.87 4.52-3.29 8.09-6.34 10.69-9.15 2.54-2.879 4.46-5.449 5.76-7.711 1.37-2.33 2.19-4.386 2.46-6.168.35-1.782.52-3.29.52-4.524 0-.206-.04-.514-.1-.925 0-.48-.14-.925-.42-1.337-.27-.411-.65-.788-1.13-1.131s-1.16-.514-2.05-.514c-1.72 0-3.46.754-5.25 2.262-1.78 1.439-3.49 3.256-5.14 5.449a72.32 72.32 0 0 0-4.42 6.991c-1.3 2.536-2.36 4.832-3.18 6.888v36.292c0 .617-.11 1.336-.31 2.159-.21.822-.72 1.61-1.54 2.364-.76.754-1.86 1.405-3.29 1.954-1.51.548-3.5.822-5.97.822-2.46 0-4.42-.308-5.86-.925-1.37-.548-2.4-1.234-3.08-2.056-.69-.754-1.13-1.577-1.338-2.468-.137-.822-.206-1.508-.206-2.056V19.099c0-1.371-.308-2.57-.925-3.598s-1.679-1.542-3.187-1.542c-.823 0-1.508.137-2.056.411-.617.274-1.268.651-1.954 1.131l-1.336-1.645c1.096-.891 2.296-1.782 3.598-2.673 1.302-.822 2.742-1.576 4.318-2.262 1.576-.617 3.256-1.165 5.036-1.645a24.58 24.58 0 0 1 5.55-.617c3.09 0 5.45.411 7.1 1.234 1.71.822 2.98 1.851 3.8 3.084a9.5 9.5 0 0 1 1.44 3.804c.14 1.302.21 2.467.21 3.496zm137.45 5.654v79.574a14.42 14.42 0 0 0 .31 3.084c.21.959.62 1.782 1.23 2.467.69.754 1.58 1.337 2.68 1.748 1.09.411 2.53.617 4.31.617 2.54 0 4.91-.754 7.1-2.262 2.12-1.439 3.97-3.324 5.55-5.654 1.51-2.331 2.71-4.935 3.6-7.814.82-2.879 1.23-5.757 1.23-8.636 0-4.249-.58-7.985-1.75-11.206-1.16-3.29-2.77-6.066-4.83-8.327-2.05-2.262-4.49-4.01-7.3-5.243s-5.86-1.919-9.15-2.056l1.44-3.598c2.06.069 4.05-.24 5.97-.925 1.85-.617 3.49-1.748 4.93-3.393s2.57-3.872 3.39-6.683c.83-2.741 1.24-6.237 1.24-10.486 0-2.879-.35-5.449-1.03-7.711-.69-2.33-1.61-4.25-2.78-5.757-1.16-1.576-2.5-2.81-4.01-3.701-1.5-.823-3.05-1.234-4.62-1.234-1.03 0-1.99.103-2.88.308-.96.274-1.75.685-2.37 1.234-.68.548-1.23 1.302-1.64 2.262-.41.891-.62 2.022-.62 3.393zm1.44-12.954c13.57 0 23.54 2.125 29.92 6.374 6.44 4.249 9.66 10.418 9.66 18.506 0 1.988-.24 3.838-.72 5.552-.41 1.714-.99 3.256-1.75 4.626-.68 1.371-1.47 2.605-2.36 3.701-.89 1.028-1.82 1.953-2.78 2.776-2.19 1.919-4.66 3.427-7.4 4.524v1.028c4.39.548 8.3 1.851 11.72 3.907 1.44.891 2.88 2.022 4.32 3.393 1.37 1.302 2.6 2.913 3.7 4.832s1.99 4.112 2.67 6.58c.69 2.536 1.03 5.415 1.03 8.636 0 4.935-.89 9.356-2.67 13.262-1.78 3.975-4.42 7.333-7.92 10.075-3.49 2.741-7.88 4.832-13.16 6.271-5.21 1.44-11.27 2.159-18.19 2.159-6.45 0-11.69-.411-15.73-1.234-4.05-.753-7.2-1.919-9.46-3.495-2.19-1.508-3.7-3.324-4.53-5.449-.82-2.193-1.23-4.626-1.23-7.299V22.8c0-2.605-1.78-3.907-5.35-3.907-2.6 0-5.2.411-7.81 1.234-2.67.754-5.07 1.782-7.2 3.084-2.12 1.371-3.87 2.982-5.24 4.832s-2.05 3.838-2.05 5.963c0 1.508.2 2.707.61 3.598s.86 1.576 1.34 2.056c.55.411 1.1.685 1.64.822.48.069.86.103 1.13.103 1.17 0 2.13-.171 2.88-.514.76-.411 1.44-.857 2.06-1.337.62-.411 1.16-.822 1.64-1.234.55-.411 1.2-.617 1.96-.617.55 0 1.13.137 1.75.411.61.274 1.2.685 1.74 1.234.55.548 1 1.302 1.34 2.262.41.891.62 1.988.62 3.29 0 1.851-.38 3.461-1.13 4.832-.69 1.371-1.61 2.502-2.78 3.393a10.76 10.76 0 0 1-3.91 2.056c-1.5.48-2.98.72-4.42.72-2.26 0-4.28-.411-6.06-1.234-1.79-.754-3.33-1.816-4.63-3.187-1.23-1.371-2.19-2.947-2.88-4.729a16.86 16.86 0 0 1-1.03-5.86c0-3.907.76-7.334 2.27-10.281 1.43-3.016 3.46-5.586 6.06-7.711 2.67-2.125 5.86-3.907 9.56-5.346s7.82-2.57 12.34-3.393c4.45-.891 9.25-1.508 14.39-1.851s10.49-.514 16.04-.514zm56.65 69.088c0-6.168.89-11.549 2.67-16.141s4.18-8.43 7.2-11.515a29.02 29.02 0 0 1 10.38-6.991c3.91-1.576 8.02-2.365 12.34-2.365s8.43.72 12.34 2.159c3.97 1.439 7.43 3.633 10.38 6.58s5.31 6.682 7.09 11.206c1.79 4.524 2.68 9.87 2.68 16.038s-.89 11.617-2.68 16.347c-1.78 4.729-4.14 8.704-7.09 11.926a30.12 30.12 0 0 1-10.38 7.402c-3.91 1.645-8.02 2.467-12.34 2.467s-8.43-.788-12.34-2.364a29.03 29.03 0 0 1-10.38-6.991c-3.02-3.085-5.42-6.957-7.2-11.618-1.78-4.592-2.67-9.973-2.67-16.141zm43.28-.72c0-3.77-.14-7.368-.41-10.795-.27-3.495-.79-6.614-1.54-9.356-.76-2.742-1.82-4.901-3.19-6.477-1.44-1.645-3.29-2.467-5.55-2.467-2.33 0-4.18.857-5.55 2.57-1.44 1.713-2.54 3.975-3.29 6.785-.76 2.742-1.24 5.894-1.44 9.458-.21 3.564-.31 7.231-.31 11.001s.1 7.436.31 11.001c.2 3.564.68 6.751 1.44 9.561.75 2.81 1.85 5.072 3.29 6.785 1.37 1.714 3.22 2.571 5.55 2.571 2.26 0 4.11-.891 5.55-2.673 1.37-1.782 2.43-4.113 3.19-6.991.75-2.948 1.27-6.237 1.54-9.87a149.75 149.75 0 0 0 .41-11.103zm30.43.72c0-6.168.89-11.549 2.68-16.141 1.78-4.592 4.18-8.43 7.19-11.515a28.97 28.97 0 0 1 10.39-6.991c3.9-1.576 8.01-2.365 12.33-2.365s8.43.72 12.34 2.159c3.98 1.439 7.44 3.633 10.38 6.58 3.02 2.947 5.38 6.682 7.1 11.206 1.78 4.524 2.67 9.87 2.67 16.038s-.89 11.617-2.67 16.347c-1.72 4.729-4.08 8.704-7.1 11.926-2.94 3.221-6.4 5.688-10.38 7.402-3.91 1.645-8.02 2.467-12.34 2.467s-8.43-.788-12.33-2.364a28.98 28.98 0 0 1-10.39-6.991c-3.01-3.085-5.41-6.957-7.19-11.618-1.79-4.592-2.68-9.973-2.68-16.141zm43.28-.72c0-3.77-.13-7.368-.41-10.795-.27-3.495-.78-6.614-1.54-9.356-.75-2.742-1.81-4.901-3.19-6.477-1.43-1.645-3.29-2.467-5.55-2.467-2.33 0-4.18.857-5.55 2.57-1.44 1.713-2.5 3.975-3.19 6.785-.75 2.742-1.26 5.894-1.54 9.458-.2 3.564-.31 7.231-.31 11.001s.11 7.436.31 11.001c.28 3.564.79 6.751 1.54 9.561.69 2.81 1.75 5.072 3.19 6.785 1.37 1.714 3.22 2.571 5.55 2.571 2.26 0 4.12-.891 5.55-2.673 1.38-1.782 2.44-4.113 3.19-6.991.76-2.948 1.27-6.237 1.54-9.87a144.5 144.5 0 0 0 .41-11.103zm56.76-61.068v43.899c1.57-2.193 3.32-4.421 5.24-6.683 1.85-2.262 3.87-4.318 6.06-6.169a34.02 34.02 0 0 1 7-4.524c2.53-1.165 5.31-1.748 8.32-1.748 2.68 0 4.9.548 6.69 1.645 1.78 1.028 3.22 2.296 4.31 3.804 1.1 1.439 1.85 2.947 2.27 4.524.47 1.645.71 3.016.71 4.112 0 2.056-.27 4.215-.82 6.477-.55 2.193-1.47 4.386-2.77 6.58-1.31 2.193-3.02 4.284-5.14 6.271-2.2 2.056-4.9 3.941-8.13 5.654 4.39 9.321 8.67 17.34 12.86 24.058 4.18 6.716 8.19 12.234 12.02 16.552 3.84 4.318 7.54 7.539 11.11 9.664 3.56 2.056 6.95 3.084 10.18 3.084.61 0 1.19-.068 1.74-.205a10.28 10.28 0 0 0 1.55-.515l1.64-.719 1.34 2.467c-1.31.686-2.61 1.337-3.91 1.954-1.3.685-2.81 1.233-4.52 1.645-1.65.479-3.6.856-5.86 1.13-2.2.275-4.8.412-7.82.412-2.74 0-5.48-.309-8.22-.926-2.67-.685-5.38-1.85-8.12-3.495-2.68-1.714-5.42-3.975-8.23-6.785s-5.65-6.375-8.53-10.693c-2.95-4.318-5.96-9.458-9.05-15.421-3.08-5.894-6.3-12.851-9.66-20.87 4.52-3.29 8.05-6.34 10.59-9.15 2.6-2.879 4.55-5.449 5.86-7.711 1.3-2.33 2.12-4.386 2.46-6.168.35-1.782.52-3.29.52-4.524 0-.206-.04-.514-.1-.925-.07-.48-.21-.925-.42-1.337-.27-.411-.65-.788-1.13-1.131s-1.16-.514-2.05-.514c-1.79 0-3.57.754-5.35 2.262-1.78 1.439-3.46 3.256-5.04 5.449a52.64 52.64 0 0 0-4.42 6.991c-1.3 2.536-2.36 4.832-3.18 6.888v36.292c0 .617-.14 1.336-.42 2.159-.2.822-.68 1.61-1.44 2.364-.75.754-1.88 1.405-3.39 1.954-1.44.548-3.39.822-5.86.822-2.53 0-4.49-.308-5.86-.925-1.44-.548-2.5-1.234-3.19-2.056-.68-.754-1.09-1.577-1.23-2.468-.14-.822-.2-1.508-.2-2.056V19.099c0-1.371-.35-2.57-1.03-3.598-.62-1.028-1.68-1.542-3.19-1.542-.75 0-1.44.137-2.06.411-.54.274-1.16.651-1.85 1.131l-1.44-1.645a56.19 56.19 0 0 1 3.6-2.673c1.3-.822 2.74-1.576 4.32-2.262 1.58-.617 3.26-1.165 5.04-1.645 1.78-.411 3.67-.617 5.65-.617 3.02 0 5.38.411 7.1 1.234 1.71.822 2.94 1.851 3.7 3.084.82 1.165 1.3 2.433 1.44 3.804.2 1.302.31 2.467.31 3.496z" fill="url(#A)"/><path d="M19.594 106.621L6.405 238.332l-4.993 17.734L12.78 132.172l6.815-25.551zm383.555 0l13.194 131.711 4.992 17.734-11.363-123.894-6.823-25.551zM24.397 97.832l.055-.52c-.004 0-.389.22-.055.52zm387.798 144.614s.009 3.394-37.476 3.394c-43.898 0-55.574-22.038-111.339-22.038-32.213 0-46.342 27.487-52.006 44.554-5.665-17.067-19.789-44.554-52.007-44.554-55.76 0-67.445 22.038-111.334 22.038-37.493 0-37.485-3.394-37.485-3.394L0 281.638h422.747l-10.552-39.192z" fill="url(#B)"/><path d="M398.3 97.312s-2.089.579-6.828 1.184l3.019 60.871s-34.344 28.671-121.456 44.313c-57.434 10.319-61.661 50.776-61.661 50.776 3.107-6.929 16.956-39.709 52.006-39.709 54.247 0 68.658 22.046 111.339 22.046 32.205 0 37.476-3.542 37.476-3.542L398.3 97.312h0z" fill="url(#C)"/><path d="M378.456 0s-13.359 33.904-108.308 64.985c-27.732 9.076-42.012 22.617-49.381 33.934-4.553 6.222-7.089 12.716-7.478 18.034a25.85 25.85 0 0 0-.22 1.442h-.089l-1.606 81.666-1.607-81.666h-.169c0-14.217-17.751-40.601-50.231-40.601-55.76 0-58.402 22.042-102.292 22.042-26.62 0-31.862-1.268-32.678-2.004L10.552 233.255s5.272 3.543 37.485 3.543c42.672 0 57.088-22.047 111.334-22.047 35.05 0 49.179 32.78 52.007 39.709 0 0 4.675-41.159 61.657-55.287 85.903-21.311 112.417-48.844 112.417-48.844L378.456 0h0z" fill="url(#D)"/><path d="M621.758 223h-12.022l18.318-53.062h14.457L660.803 223h-12.022l-13.291-40.936h-.415L621.758 223zm-.752-20.857h28.397v8.757h-28.397v-8.757zM667.189 223v-53.062h20.935c4.007 0 7.427.717 10.26 2.151 2.85 1.416 5.018 3.428 6.503 6.036 1.503 2.591 2.254 5.64 2.254 9.146 0 3.524-.76 6.555-2.28 9.094-1.52 2.522-3.722 4.457-6.607 5.804-2.867 1.347-6.339 2.021-10.415 2.021h-14.017v-9.016h12.203c2.142 0 3.921-.294 5.338-.881s2.47-1.468 3.16-2.643c.709-1.175 1.063-2.634 1.063-4.379 0-1.761-.354-3.247-1.063-4.456-.69-1.209-1.753-2.125-3.186-2.746-1.417-.639-3.204-.959-5.364-.959h-7.565V223h-11.219zm28.656-24.147L709.033 223h-12.385l-12.903-24.147h12.1zm67.985-2.384c0 5.786-1.097 10.709-3.29 14.768-2.177 4.059-5.147 7.16-8.913 9.302-3.748 2.124-7.963 3.186-12.644 3.186-4.715 0-8.947-1.07-12.695-3.212s-6.71-5.243-8.887-9.302-3.264-8.973-3.264-14.742c0-5.786 1.088-10.709 3.264-14.768s5.139-7.151 8.887-9.276c3.748-2.141 7.98-3.212 12.695-3.212 4.681 0 8.896 1.071 12.644 3.212 3.766 2.125 6.736 5.217 8.913 9.276 2.193 4.059 3.29 8.982 3.29 14.768zm-11.374 0c0-3.748-.561-6.909-1.684-9.483-1.105-2.573-2.669-4.525-4.689-5.855s-4.388-1.995-7.1-1.995-5.078.665-7.099 1.995-3.592 3.282-4.715 5.855c-1.106 2.574-1.658 5.735-1.658 9.483s.552 6.909 1.658 9.483c1.123 2.573 2.694 4.525 4.715 5.855s4.388 1.995 7.099 1.995 5.079-.665 7.1-1.995 3.584-3.282 4.689-5.855c1.123-2.574 1.684-5.735 1.684-9.483zm52.46-26.531h11.218v34.459c0 3.869-.924 7.255-2.772 10.157-1.831 2.901-4.396 5.164-7.695 6.788-3.299 1.606-7.142 2.409-11.53 2.409-4.404 0-8.256-.803-11.555-2.409-3.299-1.624-5.864-3.887-7.695-6.788s-2.746-6.288-2.746-10.157v-34.459h11.218v33.501c0 2.021.441 3.817 1.322 5.389.898 1.572 2.159 2.807 3.782 3.705s3.515 1.347 5.674 1.347c2.177 0 4.068-.449 5.674-1.347 1.624-.898 2.876-2.133 3.757-3.705.898-1.572 1.348-3.368 1.348-5.389v-33.501zm49.233 15.261c-.207-2.09-1.096-3.714-2.668-4.871s-3.705-1.736-6.4-1.736c-1.831 0-3.377.259-4.638.777-1.26.501-2.228 1.201-2.901 2.099-.657.898-.985 1.917-.985 3.057-.034.95.164 1.779.596 2.487.449.708 1.062 1.322 1.84 1.84.777.501 1.675.941 2.694 1.321 1.019.363 2.107.674 3.265.933l4.767 1.14c2.314.518 4.439 1.209 6.374 2.073s3.61 1.926 5.026 3.186 2.513 2.747 3.29 4.457c.795 1.71 1.201 3.67 1.218 5.881-.017 3.247-.846 6.063-2.487 8.447-1.624 2.366-3.973 4.205-7.047 5.518-3.058 1.296-6.745 1.943-11.064 1.943-4.283 0-8.014-.656-11.192-1.969-3.161-1.312-5.631-3.256-7.41-5.829-1.762-2.591-2.686-5.795-2.773-9.613h10.856c.121 1.78.631 3.265 1.529 4.457.915 1.174 2.133 2.064 3.653 2.668 1.537.588 3.273.881 5.208.881 1.9 0 3.549-.276 4.948-.829 1.417-.552 2.514-1.321 3.291-2.306s1.166-2.116 1.166-3.394c0-1.192-.354-2.193-1.062-3.005-.691-.812-1.71-1.503-3.058-2.073-1.33-.57-2.962-1.088-4.897-1.554l-5.777-1.451c-4.474-1.089-8.006-2.79-10.597-5.104s-3.878-5.433-3.861-9.354c-.017-3.212.838-6.019 2.565-8.42 1.745-2.401 4.137-4.275 7.177-5.622s6.495-2.021 10.364-2.021c3.938 0 7.375.673 10.312 2.021 2.953 1.347 5.251 3.221 6.892 5.622s2.487 5.182 2.539 8.343h-10.753zM873.173 223v-53.062h35.755v9.25h-24.536v12.643h22.696v9.25h-22.696v12.669h24.639V223h-35.858zm58.451-53.062h12.566l12.099 22.852h.519l12.099-22.852h12.566l-19.354 34.304V223h-11.141v-18.758l-19.354-34.304zm101.536 26.531c0 5.786-1.1 10.709-3.3 14.768-2.17 4.059-5.14 7.16-8.91 9.302-3.75 2.124-7.96 3.186-12.64 3.186-4.72 0-8.949-1.07-12.697-3.212s-6.71-5.243-8.887-9.302-3.264-8.973-3.264-14.742c0-5.786 1.088-10.709 3.264-14.768s5.139-7.151 8.887-9.276c3.748-2.141 7.977-3.212 12.697-3.212 4.68 0 8.89 1.071 12.64 3.212 3.77 2.125 6.74 5.217 8.91 9.276 2.2 4.059 3.3 8.982 3.3 14.768zm-11.38 0c0-3.748-.56-6.909-1.68-9.483-1.11-2.573-2.67-4.525-4.69-5.855s-4.39-1.995-7.1-1.995-5.08.665-7.1 1.995-3.593 3.282-4.716 5.855c-1.106 2.574-1.658 5.735-1.658 9.483s.552 6.909 1.658 9.483c1.123 2.573 2.694 4.525 4.716 5.855s4.39 1.995 7.1 1.995 5.08-.665 7.1-1.995 3.58-3.282 4.69-5.855c1.12-2.574 1.68-5.735 1.68-9.483zm52.46-26.531h11.22v34.459c0 3.869-.92 7.255-2.77 10.157-1.83 2.901-4.4 5.164-7.7 6.788-3.3 1.606-7.14 2.409-11.53 2.409-4.4 0-8.25-.803-11.55-2.409-3.3-1.624-5.87-3.887-7.7-6.788s-2.74-6.288-2.74-10.157v-34.459h11.21v33.501c0 2.021.44 3.817 1.33 5.389a9.53 9.53 0 0 0 3.78 3.705c1.62.898 3.51 1.347 5.67 1.347 2.18 0 4.07-.449 5.68-1.347 1.62-.898 2.87-2.133 3.75-3.705.9-1.572 1.35-3.368 1.35-5.389v-33.501zM1094.69 223v-53.062h20.93c4.01 0 7.43.717 10.26 2.151 2.85 1.416 5.02 3.428 6.51 6.036 1.5 2.591 2.25 5.64 2.25 9.146 0 3.524-.76 6.555-2.28 9.094-1.52 2.522-3.72 4.457-6.61 5.804-2.86 1.347-6.33 2.021-10.41 2.021h-14.02v-9.016h12.21c2.14 0 3.92-.294 5.33-.881 1.42-.588 2.47-1.468 3.16-2.643.71-1.175 1.07-2.634 1.07-4.379 0-1.761-.36-3.247-1.07-4.456-.69-1.209-1.75-2.125-3.18-2.746-1.42-.639-3.21-.959-5.37-.959h-7.56V223h-11.22zm28.65-24.147L1136.53 223h-12.38l-12.9-24.147h12.09zm36.12-28.915h13.83l14.61 35.651h.63l14.61-35.651h13.83V223h-10.88v-34.537h-.44l-13.73 34.278h-7.41l-13.73-34.407h-.44V223h-10.88v-53.062zm77.98 0V223h-11.22v-53.062h11.22zm53.61 0V223h-9.69l-23.09-33.397h-.39V223h-11.21v-53.062h9.84l22.9 33.371h.47v-33.371h11.17zM1319.13 223h-18.81v-53.062h18.96c5.34 0 9.93 1.062 13.79 3.187 3.85 2.107 6.81 5.139 8.88 9.094 2.09 3.956 3.14 8.688 3.14 14.198 0 5.528-1.05 10.278-3.14 14.25-2.07 3.973-5.05 7.022-8.94 9.146-3.86 2.125-8.49 3.187-13.88 3.187zm-7.59-9.612h7.12c3.32 0 6.11-.588 8.37-1.762 2.28-1.192 3.99-3.031 5.13-5.519 1.16-2.504 1.74-5.734 1.74-9.69 0-3.921-.58-7.125-1.74-9.612-1.14-2.487-2.84-4.318-5.1-5.493-2.27-1.174-5.06-1.762-8.37-1.762h-7.15v33.838z" fill="#fff"/><defs><linearGradient id="A" x1="512.333" y1="6.319" x2="1465.83" y2="142.319" gradientUnits="userSpaceOnUse"><stop stop-color="#ea1f59"/><stop offset="1" stop-color="#fa9169"/></linearGradient><linearGradient id="B" x1="21.333" y1="113.229" x2="311.965" y2="397.717" gradientUnits="userSpaceOnUse"><stop stop-color="#ea1f59"/><stop offset="1" stop-color="#fa9169"/></linearGradient><linearGradient id="C" x1="221.508" y1="110.882" x2="429.869" y2="224.529" gradientUnits="userSpaceOnUse"><stop stop-color="#ea1f59"/><stop offset="1" stop-color="#fa9169"/></linearGradient><linearGradient id="D" x1="29.471" y1="21.973" x2="391.152" y2="249.404" gradientUnits="userSpaceOnUse"><stop stop-color="#ea1f59"/><stop offset="1" stop-color="#fa9169"/></linearGradient></defs></svg>