<svg xmlns="http://www.w3.org/2000/svg" width="1468" height="282" fill="none" xmlns:v="https://vecta.io/nano"><path d="M562.616 117.359c-3.907 0-6.786-.822-8.636-2.467-1.919-1.645-2.879-4.284-2.879-7.916V17.739c-1.508.137-3.358.411-5.551.822-2.262.411-4.593.994-6.991 1.748a71.69 71.69 0 0 0-7.3 2.673c-2.467 1.097-4.661 2.33-6.58 3.701s-3.495 2.913-4.729 4.626c-1.165 1.713-1.748 3.632-1.748 5.757 0 1.508.172 2.707.514 3.598.412.891.891 1.576 1.44 2.056.48.411.994.685 1.542.823s.925.206 1.131.206c1.233 0 2.193-.206 2.878-.617.754-.411 1.44-.857 2.057-1.337l1.747-1.234a3.01 3.01 0 0 1 1.851-.617c.548 0 1.165.137 1.85.411.617.274 1.2.685 1.748 1.234s.994 1.302 1.337 2.262c.342.891.514 1.988.514 3.29 0 1.851-.343 3.461-1.028 4.832-.754 1.371-1.68 2.502-2.776 3.393-1.165.959-2.502 1.645-4.01 2.056-1.439.48-2.878.72-4.318.72-2.261 0-4.318-.411-6.168-1.234-1.782-.754-3.29-1.816-4.524-3.187-1.302-1.371-2.262-2.947-2.878-4.729-.686-1.851-1.029-3.804-1.029-5.86 0-5.483 1.508-10.212 4.524-14.187 3.016-4.044 7.162-7.368 12.44-9.972 5.209-2.673 11.309-4.661 18.3-5.963 6.991-1.234 14.462-1.851 22.412-1.851l11.104.103 9.869.309c3.016.137 5.586.308 7.711.514 2.193.206 3.77.411 4.729.617s1.714.548 2.262 1.028a3.86 3.86 0 0 1 1.234 1.542 7.56 7.56 0 0 1 .617 1.748 17.84 17.84 0 0 1 .102 1.953c0 .48-.068 1.062-.205 1.748s-.343 1.337-.617 1.953a4.29 4.29 0 0 1-1.131 1.542 2.09 2.09 0 0 1-1.542.617c-.343 0-.72-.137-1.131-.411-.411-.343-.96-.754-1.645-1.234s-1.645-1.028-2.879-1.645c-1.165-.617-2.707-1.165-4.626-1.645-1.988-.548-4.387-1.028-7.197-1.439s-6.237-.685-10.281-.823v89.34c0 3.632-.959 6.271-2.878 7.916-1.851 1.645-4.729 2.467-8.636 2.467zm61.788-98.901V56.6a39.05 39.05 0 0 1 5.86-6.682c.891-.822 1.885-1.645 2.982-2.467a29.18 29.18 0 0 1 3.495-2.056 16.01 16.01 0 0 1 3.907-1.542c1.439-.411 2.879-.617 4.318-.617 3.153 0 5.963.617 8.43 1.85s4.558 3.29 6.272 6.169c1.644 2.81 2.912 6.58 3.803 11.309s1.337 10.589 1.337 17.58c0 6.785-.583 12.68-1.748 17.683-1.233 5.003-2.844 9.252-4.832 12.748-1.987 3.564-4.215 6.442-6.682 8.636s-4.969 3.941-7.505 5.243c-2.536 1.234-4.97 2.125-7.3 2.673-2.33.48-4.352.72-6.066.72l-.719-2.879a12.71 12.71 0 0 0 5.654-2.879c1.645-1.37 3.016-3.667 4.113-6.888 1.165-3.221 2.022-7.539 2.57-12.954.617-5.414.925-12.405.925-20.972 0-5.963-.274-10.692-.822-14.187-.549-3.564-1.268-6.271-2.159-8.122-.823-1.85-1.782-3.05-2.879-3.598-1.097-.617-2.228-.925-3.393-.925-1.37 0-2.57.377-3.598 1.131a11.46 11.46 0 0 0-2.673 2.467c-.754.959-1.405 1.885-1.953 2.776-.549.96-.994 1.679-1.337 2.159v46.88c0 .617-.103 1.371-.308 2.262s-.686 1.713-1.44 2.467c-.685.754-1.747 1.405-3.187 1.954s-3.392.822-5.86.822-4.421-.308-5.86-.925c-1.508-.548-2.604-1.234-3.29-2.056-.754-.754-1.234-1.577-1.439-2.468-.137-.822-.206-1.508-.206-2.056V19.281c0-1.371-.343-2.57-1.028-3.598-.617-1.028-1.679-1.542-3.187-1.542-.754 0-1.439.137-2.056.411-.549.274-1.165.651-1.851 1.131l-1.439-1.645a54.76 54.76 0 0 1 3.598-2.673c1.302-.822 2.742-1.576 4.318-2.262a48.29 48.29 0 0 1 5.038-1.645c1.782-.411 3.667-.617 5.654-.617 3.016 0 5.381.411 7.094 1.234 1.645.822 2.879 1.851 3.701 3.084.823 1.165 1.303 2.433 1.44 3.804.205 1.302.308 2.467.308 3.496zM725.26 67.6l-27.759 16.346c0 1.508.24 3.153.72 4.935.411 1.713 1.028 3.461 1.85 5.243.891 1.782 1.954 3.495 3.188 5.14 1.233 1.576 2.673 3.016 4.318 4.318 1.576 1.234 3.358 2.227 5.346 2.981s4.146 1.131 6.477 1.131c1.645 0 3.152-.171 4.523-.514 1.439-.411 2.742-.925 3.907-1.542a39.24 39.24 0 0 0 3.598-2.262 118.8 118.8 0 0 0 3.29-2.775l1.851 1.644c-1.097 1.44-2.502 3.016-4.215 4.73-1.645 1.782-3.667 3.426-6.066 4.934s-5.209 2.776-8.431 3.804c-3.152 1.028-6.785 1.542-10.897 1.542-4.044 0-7.985-.754-11.823-2.261-3.907-1.508-7.368-3.736-10.384-6.683-2.947-2.947-5.346-6.614-7.197-11-1.782-4.386-2.673-9.527-2.673-15.421 0-4.318.549-8.225 1.645-11.72 1.028-3.564 2.468-6.785 4.318-9.664s4.01-5.38 6.477-7.505c2.468-2.193 5.072-4.01 7.814-5.449a44.21 44.21 0 0 1 8.327-3.187c2.81-.754 5.552-1.131 8.225-1.131 3.427 0 6.443.377 9.047 1.131 2.536.754 4.661 1.782 6.374 3.084 1.714 1.234 3.016 2.673 3.907 4.318.822 1.714 1.234 3.461 1.234 5.243 0 2.262-.651 4.249-1.954 5.963-1.233 1.782-2.913 3.324-5.037 4.626zM696.782 78.19l14.907-8.533a13.09 13.09 0 0 0 1.439-1.028c.411-.343.72-.754.926-1.234.274-.548.479-1.165.616-1.851.069-.754.103-1.679.103-2.776 0-1.165-.103-2.433-.308-3.804a16.98 16.98 0 0 0-1.337-4.112c-.617-1.234-1.405-2.296-2.364-3.187-.891-.823-1.988-1.234-3.29-1.234-1.714 0-3.187.514-4.421 1.542-1.165 1.028-2.125 2.33-2.879 3.907s-1.371 3.393-1.85 5.449c-.412 1.988-.754 4.044-1.028 6.169-.206 2.056-.343 4.01-.412 5.86l-.102 4.832zm131.595-54.488v83.275c0 3.632-.959 6.271-2.879 7.916-1.85 1.645-4.729 2.467-8.635 2.467-3.976 0-6.889-.822-8.739-2.467s-2.776-4.284-2.776-7.916V22.982c0-2.604-1.782-3.907-5.346-3.907-2.605 0-5.209.411-7.814 1.234-2.673.754-5.072 1.782-7.196 3.084-2.125 1.371-3.873 2.981-5.244 4.832s-2.056 3.838-2.056 5.963c0 1.508.206 2.707.617 3.598s.857 1.576 1.337 2.056c.548.411 1.096.685 1.645.823.548.068.925.103 1.13.103 1.166 0 2.125-.171 2.879-.514a15.2 15.2 0 0 0 2.056-1.337 38.42 38.42 0 0 0 1.748-1.234c.48-.411 1.097-.617 1.851-.617.548 0 1.131.137 1.747.411s1.2.685 1.748 1.234.994 1.302 1.337 2.262c.411.891.617 1.988.617 3.29 0 1.851-.377 3.461-1.131 4.832-.686 1.371-1.611 2.502-2.776 3.393-1.165.959-2.468 1.645-3.907 2.056-1.508.48-2.981.72-4.421.72-2.262 0-4.283-.411-6.065-1.234a13.62 13.62 0 0 1-4.627-3.187c-1.234-1.371-2.193-2.947-2.879-4.729-.616-1.851-.925-3.804-.925-5.86 0-3.907.72-7.334 2.159-10.281 1.439-3.016 3.496-5.586 6.169-7.711 2.604-2.125 5.757-3.907 9.458-5.346s7.814-2.57 12.337-3.393c4.455-.891 9.253-1.508 14.393-1.851a241.31 241.31 0 0 1 16.039-.514c13.365 0 23.509 2.57 30.431 7.711 6.854 5.14 10.281 12.508 10.281 22.104 0 4.661-.617 8.807-1.851 12.44-1.233 3.564-2.878 6.648-4.934 9.253-2.125 2.604-4.524 4.729-7.197 6.374-2.742 1.645-5.552 2.81-8.43 3.495-2.948.685-5.895.96-8.842.823-2.879-.137-5.586-.685-8.122-1.645l.925-2.981c3.565 1.097 6.477 1.131 8.739.103s4.044-2.81 5.346-5.346c1.303-2.605 2.194-5.86 2.673-9.767.48-3.975.72-8.327.72-13.057 0-3.564-.377-6.82-1.131-9.767-.754-2.879-1.782-5.346-3.084-7.402s-2.81-3.667-4.524-4.832-3.53-1.748-5.449-1.748c-1.439 0-2.638.24-3.598.72-.96.411-1.713.96-2.262 1.645s-.925 1.405-1.131 2.159a13.19 13.19 0 0 0-.411 2.262zm76.593 31.254v54.899c0 .617-.103 1.371-.309 2.262s-.685 1.713-1.439 2.467c-.822.754-1.953 1.405-3.393 1.954s-3.392.822-5.86.822-4.421-.308-5.86-.925c-1.371-.548-2.433-1.234-3.187-2.056-.685-.754-1.097-1.577-1.234-2.468-.205-.822-.308-1.508-.308-2.056V55.675c0-1.371-.308-2.57-.925-3.598s-1.68-1.542-3.187-1.542c-.823 0-1.508.171-2.057.514-.548.274-1.165.651-1.85 1.131l-1.44-1.748a54.79 54.79 0 0 1 3.599-2.673 42.84 42.84 0 0 1 4.318-2.262 36.04 36.04 0 0 1 5.037-1.542c1.782-.48 3.633-.72 5.552-.72 3.084 0 5.449.411 7.094 1.234 1.713.822 2.981 1.85 3.804 3.084.754 1.165 1.234 2.433 1.439 3.804.137 1.371.206 2.57.206 3.598zM881.221 27.3c0-1.371.308-2.639.925-3.804.549-1.165 1.371-2.193 2.468-3.084 1.028-.891 2.227-1.611 3.598-2.159 1.371-.48 2.879-.72 4.524-.72 1.576 0 3.084.24 4.523.72 1.371.548 2.57 1.268 3.598 2.159s1.817 1.919 2.365 3.084c.617 1.165.925 2.433.925 3.804 0 1.302-.308 2.536-.925 3.701-.548 1.234-1.336 2.262-2.365 3.084-1.028.891-2.227 1.576-3.598 2.056-1.439.548-2.947.822-4.523.822-1.645 0-3.153-.274-4.524-.822-1.371-.48-2.57-1.165-3.598-2.056-1.097-.822-1.919-1.851-2.468-3.084-.617-1.165-.925-2.399-.925-3.701zm82.761 53.974c0-5.963-.274-10.692-.822-14.187-.48-3.564-1.165-6.271-2.056-8.122s-1.885-3.05-2.982-3.598c-1.097-.617-2.193-.925-3.29-.925-1.371 0-2.57.377-3.598 1.131-1.097.685-2.022 1.508-2.776 2.467s-1.405 1.885-1.953 2.776c-.549.96-1.028 1.679-1.44 2.159v46.88c0 .617-.068 1.371-.205 2.262-.206.891-.686 1.713-1.44 2.467-.685.754-1.747 1.405-3.187 1.954s-3.392.822-5.86.822-4.421-.308-5.86-.925c-1.439-.548-2.536-1.234-3.29-2.056-.754-.754-1.234-1.577-1.439-2.468-.137-.822-.206-1.508-.206-2.056V55.675c0-1.371-.342-2.57-1.028-3.598-.617-1.028-1.679-1.542-3.187-1.542-.754 0-1.439.171-2.056.514-.548.274-1.131.651-1.748 1.131l-1.542-1.748c1.097-.891 2.33-1.782 3.701-2.673 1.302-.822 2.742-1.576 4.318-2.262 1.508-.617 3.153-1.131 4.935-1.542 1.782-.48 3.667-.72 5.654-.72 3.016 0 5.381.514 7.094 1.542 1.645 1.028 2.879 2.227 3.701 3.598.823 1.439 1.303 2.913 1.44 4.421s.205 2.776.205 3.804a42.82 42.82 0 0 1 5.963-6.682c.891-.822 1.885-1.645 2.982-2.467 1.096-.754 2.262-1.439 3.495-2.056a16.01 16.01 0 0 1 3.907-1.542c1.439-.411 2.879-.617 4.318-.617 3.153 0 5.963.617 8.43 1.85s4.558 3.29 6.272 6.169c1.645 2.81 2.913 6.58 3.804 11.309s1.336 10.589 1.336 17.58c0 6.785-.617 12.68-1.85 17.683-1.166 5.003-2.742 9.252-4.73 12.748-1.987 3.564-4.215 6.442-6.682 8.636s-4.969 3.941-7.505 5.243c-2.536 1.234-4.969 2.125-7.3 2.673-2.33.48-4.318.72-5.963.72l-.822-2.879c1.439-.274 2.741-.788 3.907-1.542 1.233-.686 2.33-1.714 3.289-3.084s1.817-3.085 2.571-5.141 1.405-4.66 1.953-7.813.96-6.888 1.234-11.206c.205-4.249.308-9.218.308-14.907zm57.878-62.815v43.899a209.5 209.5 0 0 1 5.25-6.683c1.92-2.262 3.94-4.318 6.06-6.168 2.13-1.782 4.46-3.29 6.99-4.524 2.54-1.165 5.32-1.748 8.33-1.748 2.67 0 4.9.548 6.68 1.645 1.79 1.028 3.23 2.296 4.32 3.804 1.1 1.439 1.89 2.947 2.37 4.523.41 1.645.61 3.016.61 4.112 0 2.056-.27 4.215-.82 6.477-.55 2.193-1.44 4.387-2.67 6.58-1.3 2.193-3.05 4.284-5.25 6.271-2.12 2.056-4.83 3.941-8.12 5.654 4.39 9.321 8.67 17.34 12.85 24.057s8.19 12.234 12.03 16.552c3.91 4.318 7.64 7.539 11.21 9.664 3.56 2.056 6.96 3.084 10.18 3.084.54 0 1.09-.069 1.64-.206a10.04 10.04 0 0 0 1.54-.514 17.08 17.08 0 0 0 1.65-.719l1.34 2.467c-1.31.685-2.61 1.336-3.91 1.953-1.3.686-2.78 1.234-4.42 1.645-1.72.48-3.67.857-5.86 1.131-2.2.274-4.83.411-7.92.411a35.97 35.97 0 0 1-8.12-.925c-2.74-.685-5.45-1.85-8.12-3.495-2.74-1.714-5.52-3.976-8.33-6.786-2.74-2.81-5.59-6.374-8.53-10.692-2.95-4.318-5.97-9.458-9.05-15.421-3.08-5.894-6.31-12.851-9.66-20.87 4.52-3.29 8.08-6.34 10.69-9.15 2.53-2.879 4.45-5.449 5.75-7.711 1.38-2.33 2.2-4.386 2.47-6.168.34-1.782.52-3.29.52-4.524 0-.206-.04-.514-.11-.925 0-.48-.13-.925-.41-1.337-.27-.411-.65-.788-1.13-1.131s-1.16-.514-2.05-.514c-1.72 0-3.47.754-5.25 2.262-1.78 1.439-3.49 3.256-5.14 5.449a72.31 72.31 0 0 0-4.42 6.991c-1.3 2.536-2.36 4.832-3.19 6.888v36.291c0 .617-.1 1.336-.3 2.159-.21.822-.72 1.61-1.55 2.364-.75.754-1.85 1.405-3.29 1.954-1.5.548-3.49.822-5.96.822s-4.42-.308-5.86-.925c-1.37-.548-2.4-1.234-3.08-2.056-.69-.754-1.13-1.577-1.34-2.468-.14-.822-.21-1.508-.21-2.056V19.281c0-1.371-.305-2.57-.922-3.598s-1.679-1.542-3.187-1.542c-.822 0-1.507.137-2.056.411-.617.274-1.268.651-1.953 1.131l-1.337-1.645c1.097-.891 2.296-1.782 3.599-2.673 1.302-.822 2.741-1.576 4.318-2.262 1.578-.617 3.258-1.165 5.038-1.645a24.58 24.58 0 0 1 5.55-.617c3.09 0 5.45.411 7.09 1.234 1.72.822 2.99 1.851 3.81 3.084a9.65 9.65 0 0 1 1.44 3.804c.14 1.302.2 2.467.2 3.496zm137.46 5.654v79.573a14.42 14.42 0 0 0 .31 3.084c.2.96.61 1.782 1.23 2.467.69.754 1.58 1.337 2.67 1.748 1.1.411 2.54.617 4.32.617 2.54 0 4.9-.754 7.1-2.262 2.12-1.439 3.97-3.324 5.55-5.654 1.51-2.331 2.71-4.935 3.6-7.814.82-2.879 1.23-5.757 1.23-8.636 0-4.249-.58-7.985-1.75-11.206-1.16-3.29-2.77-6.066-4.83-8.327s-4.49-4.01-7.3-5.243-5.86-1.919-9.15-2.056l1.44-3.598c2.06.069 4.04-.24 5.96-.925 1.85-.617 3.5-1.748 4.94-3.393s2.57-3.873 3.39-6.682c.82-2.742 1.23-6.237 1.23-10.486 0-2.879-.34-5.449-1.02-7.711-.69-2.33-1.61-4.249-2.78-5.757-1.16-1.576-2.5-2.81-4.01-3.701-1.51-.822-3.05-1.234-4.63-1.234-1.02 0-1.98.103-2.87.308-.96.274-1.75.685-2.37 1.234-.68.548-1.23 1.302-1.64 2.262-.42.891-.62 2.022-.62 3.393zm1.44-12.954c13.57 0 23.54 2.125 29.92 6.374 6.44 4.249 9.66 10.418 9.66 18.505 0 1.988-.24 3.838-.72 5.552-.41 1.713-.99 3.255-1.75 4.626-.68 1.371-1.47 2.605-2.36 3.701-.89 1.028-1.82 1.953-2.78 2.776-2.19 1.919-4.66 3.427-7.4 4.524v1.028c4.39.548 8.29 1.851 11.72 3.907 1.44.891 2.88 2.022 4.32 3.393 1.37 1.302 2.6 2.913 3.7 4.832s1.99 4.112 2.67 6.58c.69 2.536 1.03 5.415 1.03 8.636 0 4.935-.89 9.356-2.67 13.262-1.78 3.975-4.42 7.333-7.92 10.075-3.49 2.741-7.88 4.832-13.16 6.271-5.21 1.439-11.27 2.159-18.2 2.159-6.44 0-11.68-.411-15.73-1.234-4.04-.753-7.19-1.919-9.45-3.495-2.2-1.508-3.7-3.324-4.53-5.449-.82-2.193-1.23-4.626-1.23-7.299v-76.9c0-2.604-1.78-3.907-5.35-3.907-2.6 0-5.21.411-7.81 1.234-2.67.754-5.07 1.782-7.2 3.084-2.12 1.371-3.87 2.981-5.24 4.832s-2.06 3.838-2.06 5.963c0 1.508.21 2.707.62 3.598s.86 1.576 1.34 2.056c.54.411 1.09.685 1.64.823.48.068.86.103 1.13.103 1.17 0 2.13-.171 2.88-.514.75-.411 1.44-.857 2.06-1.337a17.97 17.97 0 0 0 1.64-1.234c.55-.411 1.2-.617 1.96-.617.54 0 1.13.137 1.74.411.62.274 1.2.685 1.75 1.234s.99 1.302 1.34 2.262c.41.891.61 1.988.61 3.29 0 1.851-.37 3.461-1.13 4.832-.68 1.371-1.61 2.502-2.77 3.393a10.76 10.76 0 0 1-3.91 2.056c-1.51.48-2.98.72-4.42.72-2.26 0-4.28-.411-6.07-1.234-1.78-.754-3.32-1.816-4.62-3.187-1.24-1.371-2.2-2.947-2.88-4.729-.69-1.851-1.03-3.804-1.03-5.86 0-3.907.76-7.334 2.26-10.281 1.44-3.016 3.46-5.586 6.07-7.711 2.67-2.125 5.86-3.907 9.56-5.346s7.81-2.57 12.34-3.393c4.45-.891 9.25-1.508 14.39-1.851s10.49-.514 16.04-.514zm56.65 69.087c0-6.168.89-11.549 2.67-16.141s4.18-8.43 7.2-11.514c2.94-3.084 6.4-5.415 10.38-6.991 3.91-1.576 8.02-2.365 12.34-2.365 4.31 0 8.43.72 12.33 2.159 3.98 1.439 7.44 3.633 10.39 6.58 2.94 2.947 5.31 6.682 7.09 11.206s2.67 9.869 2.67 16.038-.89 11.617-2.67 16.346-4.15 8.704-7.09 11.926c-2.95 3.221-6.41 5.688-10.39 7.402-3.9 1.645-8.02 2.467-12.33 2.467-4.32 0-8.43-.788-12.34-2.364-3.98-1.577-7.44-3.907-10.38-6.991-3.02-3.085-5.42-6.957-7.2-11.618-1.78-4.592-2.67-9.972-2.67-16.141zm43.28-.72a137.52 137.52 0 0 0-.41-10.795c-.28-3.496-.79-6.614-1.54-9.355-.76-2.742-1.82-4.901-3.19-6.477-1.44-1.645-3.29-2.467-5.55-2.467-2.33 0-4.18.857-5.55 2.57-1.44 1.713-2.54 3.975-3.29 6.785-.76 2.741-1.24 5.894-1.44 9.458a187.15 187.15 0 0 0-.31 11 187.15 187.15 0 0 0 .31 11c.2 3.564.68 6.751 1.44 9.561.75 2.81 1.85 5.072 3.29 6.785 1.37 1.714 3.22 2.571 5.55 2.571 2.26 0 4.11-.891 5.55-2.673 1.37-1.782 2.43-4.113 3.19-6.991.75-2.947 1.26-6.237 1.54-9.87.27-3.633.41-7.334.41-11.103zm30.43.72c0-6.168.89-11.549 2.67-16.141 1.79-4.592 4.18-8.43 7.2-11.514 2.95-3.084 6.41-5.415 10.38-6.991 3.91-1.576 8.02-2.365 12.34-2.365s8.43.72 12.34 2.159c3.97 1.439 7.43 3.633 10.38 6.58 3.02 2.947 5.38 6.682 7.1 11.206 1.78 4.524 2.67 9.869 2.67 16.038s-.89 11.617-2.67 16.346c-1.72 4.729-4.08 8.704-7.1 11.926a30.12 30.12 0 0 1-10.38 7.402c-3.91 1.645-8.02 2.467-12.34 2.467s-8.43-.788-12.34-2.364a29.03 29.03 0 0 1-10.38-6.991c-3.02-3.085-5.41-6.957-7.2-11.618-1.78-4.592-2.67-9.972-2.67-16.141zm43.28-.72c0-3.77-.13-7.368-.41-10.795-.27-3.496-.79-6.614-1.54-9.355s-1.82-4.901-3.19-6.477c-1.44-1.645-3.29-2.467-5.55-2.467-2.33 0-4.18.857-5.55 2.57-1.44 1.713-2.5 3.975-3.19 6.785-.75 2.741-1.27 5.894-1.54 9.458a187.15 187.15 0 0 0-.31 11 187.15 187.15 0 0 0 .31 11c.27 3.564.79 6.751 1.54 9.561.69 2.81 1.75 5.072 3.19 6.785 1.37 1.714 3.22 2.571 5.55 2.571 2.26 0 4.11-.891 5.55-2.673 1.37-1.782 2.44-4.113 3.19-6.991.75-2.947 1.27-6.237 1.54-9.87.28-3.633.41-7.334.41-11.103zm56.75-61.068v43.899c1.58-2.193 3.33-4.421 5.25-6.683 1.85-2.262 3.87-4.318 6.06-6.168 2.13-1.782 4.46-3.29 6.99-4.524 2.54-1.165 5.32-1.748 8.33-1.748 2.67 0 4.9.548 6.68 1.645 1.79 1.028 3.23 2.296 4.32 3.804 1.1 1.439 1.85 2.947 2.26 4.523.48 1.645.72 3.016.72 4.112 0 2.056-.27 4.215-.82 6.477-.55 2.193-1.47 4.387-2.78 6.58-1.3 2.193-3.01 4.284-5.14 6.271-2.19 2.056-4.9 3.941-8.12 5.654 4.39 9.321 8.67 17.34 12.85 24.057s8.19 12.234 12.03 16.552 7.54 7.539 11.11 9.664c3.56 2.056 6.95 3.084 10.17 3.084a7.2 7.2 0 0 0 1.75-.206 10.04 10.04 0 0 0 1.54-.514l1.65-.719 1.34 2.467c-1.31.685-2.61 1.336-3.91 1.953-1.3.686-2.81 1.234-4.53 1.645-1.64.48-3.59.857-5.86 1.131-2.19.274-4.79.411-7.81.411-2.74 0-5.48-.308-8.22-.925-2.68-.685-5.38-1.85-8.13-3.495-2.67-1.714-5.41-3.976-8.22-6.786s-5.65-6.374-8.53-10.692c-2.95-4.318-5.97-9.458-9.05-15.421-3.08-5.894-6.31-12.851-9.66-20.87 4.52-3.29 8.05-6.34 10.58-9.15 2.61-2.879 4.56-5.449 5.86-7.711 1.31-2.33 2.13-4.386 2.47-6.168s.52-3.29.52-4.524c0-.206-.04-.514-.11-.925a4.26 4.26 0 0 0-.41-1.337c-.27-.411-.65-.788-1.13-1.131s-1.16-.514-2.05-.514c-1.79 0-3.57.754-5.35 2.262-1.78 1.439-3.46 3.256-5.04 5.449-1.64 2.193-3.12 4.524-4.42 6.991-1.3 2.536-2.36 4.832-3.19 6.888v36.291c0 .617-.13 1.336-.41 2.159-.2.822-.68 1.61-1.44 2.364-.75.754-1.88 1.405-3.39 1.954-1.44.548-3.39.822-5.86.822-2.54 0-4.49-.308-5.86-.925-1.44-.548-2.5-1.234-3.19-2.056-.68-.754-1.09-1.577-1.23-2.468-.14-.822-.21-1.508-.21-2.056V19.281c0-1.371-.34-2.57-1.02-3.598-.62-1.028-1.68-1.542-3.19-1.542-.76 0-1.44.137-2.06.411-.55.274-1.16.651-1.85 1.131l-1.44-1.645a56.19 56.19 0 0 1 3.6-2.673c1.3-.822 2.74-1.576 4.32-2.262 1.58-.617 3.25-1.165 5.04-1.645 1.78-.411 3.66-.617 5.65-.617 3.02 0 5.38.411 7.09 1.234 1.72.822 2.95 1.851 3.71 3.084.82 1.165 1.3 2.433 1.44 3.804.2 1.302.3 2.467.3 3.496z" fill="url(#A)"/><path d="M20.261 106.803l-13.19 131.71-4.993 17.734 11.368-123.893 6.815-25.551zm383.555 0l13.194 131.71 4.992 17.734-11.363-123.893-6.823-25.551zM25.063 98.014l.055-.52c-.004 0-.389.22-.055.52zm387.8 144.613s.008 3.394-37.477 3.394c-43.898 0-55.574-22.037-111.339-22.037-32.214 0-46.342 27.486-52.007 44.553-5.664-17.067-19.788-44.553-52.006-44.553-55.76 0-67.445 22.037-111.335 22.037-37.493 0-37.485-3.394-37.485-3.394L.667 281.819h422.747l-10.551-39.192z" fill="url(#B)"/><path d="M398.967 97.494s-2.089.579-6.828 1.184l3.019 60.871s-34.344 28.67-121.455 44.312c-57.435 10.319-61.662 50.775-61.662 50.775 3.107-6.928 16.956-39.708 52.006-39.708 54.247 0 68.658 22.046 111.339 22.046 32.205 0 37.476-3.542 37.476-3.542L398.967 97.494h0z" fill="url(#C)"/><path d="M379.122.18s-13.358 33.905-108.307 64.985c-27.733 9.076-42.013 22.617-49.381 33.934-4.553 6.223-7.09 12.716-7.479 18.034-.086.479-.16.959-.22 1.442h-.088l-1.607 81.667-1.606-81.667h-.169c0-14.217-17.752-40.601-50.231-40.601-55.761 0-58.403 22.042-102.292 22.042-26.62 0-31.862-1.268-32.678-2.004L11.218 233.436s5.272 3.543 37.485 3.543c42.672 0 57.088-22.047 111.335-22.047 35.05 0 49.178 32.78 52.006 39.709 0 0 4.676-41.159 61.658-55.287 85.902-21.311 112.417-48.845 112.417-48.845L379.122.18h0z" fill="url(#D)"/><path d="M622.758 247h-12.022l18.318-53.062h14.457L661.803 247h-12.022l-13.291-40.936h-.415L622.758 247zm-.752-20.857h28.397v8.757h-28.397v-8.757zM668.189 247v-53.062h20.935c4.007 0 7.427.717 10.26 2.151 2.85 1.416 5.018 3.428 6.503 6.036 1.503 2.591 2.254 5.64 2.254 9.146 0 3.524-.76 6.555-2.28 9.094-1.52 2.522-3.722 4.457-6.607 5.804-2.867 1.347-6.339 2.021-10.415 2.021h-14.017v-9.016h12.203c2.142 0 3.921-.294 5.338-.881s2.47-1.468 3.16-2.643c.709-1.175 1.063-2.634 1.063-4.379 0-1.761-.354-3.247-1.063-4.456-.69-1.209-1.753-2.125-3.186-2.746-1.417-.639-3.204-.959-5.364-.959h-7.565V247h-11.219zm28.656-24.147L710.033 247h-12.385l-12.903-24.147h12.1zm67.985-2.384c0 5.786-1.097 10.709-3.29 14.768-2.177 4.059-5.147 7.16-8.913 9.302-3.748 2.124-7.963 3.186-12.644 3.186-4.715 0-8.947-1.07-12.695-3.212s-6.71-5.243-8.887-9.302-3.264-8.973-3.264-14.742c0-5.786 1.088-10.709 3.264-14.768s5.139-7.151 8.887-9.276c3.748-2.141 7.98-3.212 12.695-3.212 4.681 0 8.896 1.071 12.644 3.212 3.766 2.125 6.736 5.217 8.913 9.276 2.193 4.059 3.29 8.982 3.29 14.768zm-11.374 0c0-3.748-.561-6.909-1.684-9.483-1.105-2.573-2.669-4.525-4.689-5.855s-4.388-1.995-7.1-1.995-5.078.665-7.099 1.995-3.592 3.282-4.715 5.855c-1.106 2.574-1.658 5.735-1.658 9.483s.552 6.909 1.658 9.483c1.123 2.573 2.694 4.525 4.715 5.855s4.388 1.995 7.099 1.995 5.079-.665 7.1-1.995 3.584-3.282 4.689-5.855c1.123-2.574 1.684-5.735 1.684-9.483zm52.46-26.531h11.218v34.459c0 3.869-.924 7.255-2.772 10.157-1.831 2.901-4.396 5.164-7.695 6.788-3.299 1.606-7.142 2.409-11.53 2.409-4.404 0-8.256-.803-11.555-2.409-3.299-1.624-5.864-3.887-7.695-6.788s-2.746-6.288-2.746-10.157v-34.459h11.218v33.501c0 2.021.441 3.817 1.322 5.389.898 1.572 2.159 2.807 3.782 3.705s3.515 1.347 5.674 1.347c2.177 0 4.068-.449 5.674-1.347 1.624-.898 2.876-2.133 3.757-3.705.898-1.572 1.348-3.368 1.348-5.389v-33.501zm49.233 15.261c-.207-2.09-1.096-3.714-2.668-4.871s-3.705-1.736-6.4-1.736c-1.831 0-3.377.259-4.638.777-1.26.501-2.228 1.201-2.901 2.099-.657.898-.985 1.917-.985 3.057-.034.95.164 1.779.596 2.487.449.708 1.062 1.322 1.84 1.84.777.501 1.675.941 2.694 1.321 1.019.363 2.107.674 3.265.933l4.767 1.14c2.314.518 4.439 1.209 6.374 2.073s3.61 1.926 5.026 3.186 2.513 2.747 3.29 4.457c.795 1.71 1.201 3.67 1.218 5.881-.017 3.247-.846 6.063-2.487 8.447-1.624 2.366-3.973 4.205-7.047 5.518-3.058 1.296-6.745 1.943-11.064 1.943-4.283 0-8.014-.656-11.192-1.969-3.161-1.312-5.631-3.256-7.41-5.829-1.762-2.591-2.686-5.795-2.773-9.613h10.856c.121 1.78.631 3.265 1.529 4.457.915 1.174 2.133 2.064 3.653 2.668 1.537.588 3.273.881 5.208.881 1.9 0 3.549-.276 4.948-.829 1.417-.552 2.514-1.321 3.291-2.306s1.166-2.116 1.166-3.394c0-1.192-.354-2.193-1.062-3.005-.691-.812-1.71-1.503-3.058-2.073-1.33-.57-2.962-1.088-4.897-1.554l-5.777-1.451c-4.474-1.089-8.006-2.79-10.597-5.104s-3.878-5.433-3.861-9.354c-.017-3.212.838-6.019 2.565-8.42 1.745-2.401 4.137-4.275 7.177-5.622s6.495-2.021 10.364-2.021c3.938 0 7.375.673 10.312 2.021 2.953 1.347 5.251 3.221 6.892 5.622s2.487 5.182 2.539 8.343h-10.753zM874.173 247v-53.062h35.755v9.25h-24.536v12.643h22.696v9.25h-22.696v12.669h24.639V247h-35.858zm58.451-53.062h12.566l12.099 22.852h.519l12.099-22.852h12.566l-19.354 34.304V247h-11.141v-18.758l-19.354-34.304zm101.536 26.531c0 5.786-1.1 10.709-3.3 14.768-2.17 4.059-5.14 7.16-8.91 9.302-3.75 2.124-7.96 3.186-12.64 3.186-4.72 0-8.95-1.07-12.697-3.212s-6.71-5.243-8.887-9.302-3.264-8.973-3.264-14.742c0-5.786 1.088-10.709 3.264-14.768s5.139-7.151 8.887-9.276c3.747-2.141 7.977-3.212 12.697-3.212 4.68 0 8.89 1.071 12.64 3.212 3.77 2.125 6.74 5.217 8.91 9.276 2.2 4.059 3.3 8.982 3.3 14.768zm-11.38 0c0-3.748-.56-6.909-1.68-9.483-1.11-2.573-2.67-4.525-4.69-5.855s-4.39-1.995-7.1-1.995-5.08.665-7.1 1.995-3.593 3.282-4.716 5.855c-1.106 2.574-1.658 5.735-1.658 9.483s.552 6.909 1.658 9.483c1.123 2.573 2.696 4.525 4.716 5.855s4.39 1.995 7.1 1.995 5.08-.665 7.1-1.995 3.58-3.282 4.69-5.855c1.12-2.574 1.68-5.735 1.68-9.483zm52.46-26.531h11.22v34.459c0 3.869-.92 7.255-2.77 10.157-1.83 2.901-4.4 5.164-7.7 6.788-3.3 1.606-7.14 2.409-11.53 2.409-4.4 0-8.25-.803-11.55-2.409-3.3-1.624-5.87-3.887-7.7-6.788s-2.74-6.288-2.74-10.157v-34.459h11.21v33.501c0 2.021.44 3.817 1.33 5.389a9.53 9.53 0 0 0 3.78 3.705c1.62.898 3.51 1.347 5.67 1.347 2.18 0 4.07-.449 5.68-1.347 1.62-.898 2.87-2.133 3.75-3.705.9-1.572 1.35-3.368 1.35-5.389v-33.501zM1095.69 247v-53.062h20.93c4.01 0 7.43.717 10.26 2.151 2.85 1.416 5.02 3.428 6.51 6.036 1.5 2.591 2.25 5.64 2.25 9.146 0 3.524-.76 6.555-2.28 9.094-1.52 2.522-3.72 4.457-6.61 5.804-2.86 1.347-6.33 2.021-10.41 2.021h-14.02v-9.016h12.21c2.14 0 3.92-.294 5.33-.881 1.42-.588 2.47-1.468 3.16-2.643.71-1.175 1.07-2.634 1.07-4.379 0-1.761-.36-3.247-1.07-4.456-.69-1.209-1.75-2.125-3.18-2.746-1.42-.639-3.21-.959-5.37-.959h-7.56V247h-11.22zm28.65-24.147L1137.53 247h-12.38l-12.9-24.147h12.09zm36.12-28.915h13.83l14.61 35.651h.63l14.61-35.651h13.83V247h-10.88v-34.537h-.44l-13.73 34.278h-7.41l-13.73-34.407h-.44V247h-10.88v-53.062zm77.98 0V247h-11.22v-53.062h11.22zm53.61 0V247h-9.69l-23.09-33.397h-.39V247h-11.21v-53.062h9.84l22.9 33.371h.47v-33.371h11.17zM1320.13 247h-18.81v-53.062h18.96c5.34 0 9.93 1.062 13.79 3.187 3.85 2.107 6.81 5.139 8.88 9.094 2.09 3.956 3.14 8.688 3.14 14.198 0 5.528-1.05 10.278-3.14 14.25-2.07 3.973-5.05 7.022-8.94 9.146-3.86 2.125-8.49 3.187-13.88 3.187zm-7.59-9.612h7.12c3.32 0 6.11-.588 8.37-1.762 2.28-1.192 3.99-3.031 5.13-5.519 1.16-2.504 1.74-5.734 1.74-9.69 0-3.921-.58-7.125-1.74-9.612-1.14-2.487-2.84-4.318-5.1-5.493-2.27-1.174-5.06-1.762-8.37-1.762h-7.15v33.838z" fill="#6e1f46"/><defs><linearGradient id="A" x1="509" y1="13" x2="1462.5" y2="134.5" gradientUnits="userSpaceOnUse"><stop stop-color="#a53e33"/><stop offset="1" stop-color="#ba69c9"/></linearGradient><linearGradient id="B" x1="-69.722" y1="81.889" x2="313.416" y2="260.551" gradientUnits="userSpaceOnUse"><stop stop-color="#a53e33"/><stop offset="1" stop-color="#ba69c9"/></linearGradient><linearGradient id="C" x1="121.849" y1="171.219" x2="303.854" y2="256.09" gradientUnits="userSpaceOnUse"><stop stop-color="#a53e33"/><stop offset="1" stop-color="#ba69c9"/></linearGradient><linearGradient id="D" x1="-19.033" y1="-1.848" x2="320.743" y2="156.591" gradientUnits="userSpaceOnUse"><stop stop-color="#a53e33"/><stop offset="1" stop-color="#ba69c9"/></linearGradient></defs></svg>