<?xml version="1.0" standalone="no"?>
<!DOCTYPE svg PUBLIC "-//W3C//DTD SVG 20010904//EN"
 "http://www.w3.org/TR/2001/REC-SVG-20010904/DTD/svg10.dtd">
<svg version="1.0" xmlns="http://www.w3.org/2000/svg"
 width="256.000000pt" height="256.000000pt" viewBox="0 0 256.000000 256.000000"
 preserveAspectRatio="xMidYMid meet">
<metadata>
Created by potrace 1.14, written by Peter Selinger 2001-2017
</metadata>
<g transform="translate(0.000000,256.000000) scale(0.100000,-0.100000)"
fill="#000000" stroke="none">
<path d="M860 2384 c-89 -32 -52 15 -424 -534 -77 -113 -143 -206 -148 -208
-4 -2 -8 -7 -8 -12 0 -4 -52 -85 -116 -179 -140 -209 -156 -242 -154 -324 1
-34 3 -118 4 -187 2 -140 13 -178 56 -203 16 -10 107 -45 202 -78 95 -34 198
-70 228 -81 30 -11 60 -21 65 -22 6 -2 17 -6 25 -9 13 -5 414 -147 550 -194
25 -9 54 -27 66 -40 11 -13 30 -25 42 -26 12 -1 22 -5 22 -10 0 -5 9 -7 20 -4
11 3 20 2 20 -3 0 -4 14 -6 30 -5 17 1 30 -1 30 -6 0 -5 6 -6 13 -4 11 4 102
16 135 18 6 0 12 5 12 10 0 5 7 7 15 3 10 -3 15 1 15 12 0 15 2 15 10 2 8 -13
10 -12 10 3 0 9 5 17 11 17 5 0 7 -6 3 -12 -5 -9 -3 -9 9 1 9 7 14 17 11 22
-3 5 2 9 11 9 10 0 13 -5 9 -12 -4 -7 5 -2 19 11 15 14 23 29 19 35 -4 6 -7
18 -6 26 1 8 2 21 3 28 0 6 6 12 12 12 8 0 7 -6 -2 -17 -12 -16 -12 -17 2 -6
9 7 18 10 21 8 10 -10 49 -14 43 -4 -4 5 -10 7 -15 4 -4 -3 -19 4 -31 15 l-24
20 30 -6 c23 -4 26 -3 15 5 -8 6 -11 11 -6 11 5 0 3 6 -3 14 -10 12 -8 19 8
35 12 12 21 23 21 26 0 3 0 10 0 15 0 6 4 10 10 10 5 0 7 -8 3 -18 -7 -18 -5
-17 15 10 10 12 10 18 1 24 -8 5 -9 3 -4 -6 5 -9 4 -11 -3 -6 -8 5 -5 18 13
43 13 20 21 41 18 46 -3 6 -1 7 5 3 7 -4 13 -2 13 3 1 6 2 16 3 23 0 6 6 13
13 15 8 3 10 -4 7 -20 -3 -17 1 -27 13 -32 14 -5 15 -4 6 6 -10 10 -9 15 5 26
16 12 16 13 -2 6 -13 -4 -17 -3 -12 5 3 6 2 13 -4 17 -13 8 10 45 30 46 10 0
8 3 -5 9 -11 5 -15 9 -10 9 6 1 16 14 23 30 9 21 18 28 32 24 12 -3 20 0 20 6
0 7 -4 9 -10 6 -5 -3 -10 1 -10 9 0 18 16 21 25 6 3 -6 12 -10 18 -9 9 0 8 2
-1 6 -6 2 -10 9 -7 13 3 5 0 12 -6 16 -8 5 -9 3 -4 -6 5 -8 4 -11 -3 -6 -6 4
-9 13 -5 22 4 11 8 12 19 3 8 -7 17 -9 21 -5 3 3 2 6 -4 6 -6 0 -14 7 -17 16
-5 14 -4 15 8 5 11 -9 16 -9 22 0 4 7 3 9 -3 6 -17 -10 -23 19 -9 38 12 16 13
16 29 0 22 -21 22 -7 0 17 -15 17 -15 18 3 19 10 1 22 1 27 0 4 0 6 5 5 11 -2
7 2 12 7 11 6 -1 12 7 12 18 1 10 -3 19 -8 19 -6 0 -8 -4 -5 -8 3 -5 -4 -16
-15 -25 -15 -13 -19 -14 -19 -3 0 8 5 16 11 18 5 2 11 12 13 22 1 10 10 24 20
31 10 7 17 16 17 19 -2 19 0 26 10 26 8 0 8 -4 0 -14 -9 -10 -7 -17 6 -27 16
-12 17 -12 6 2 -7 9 -10 19 -6 23 4 4 13 -4 21 -16 10 -18 12 -18 6 -3 -4 11
-7 31 -7 44 1 17 -1 20 -7 10 -5 -7 -11 -11 -14 -8 -3 3 5 16 17 29 12 14 22
30 22 35 0 18 37 85 47 85 5 0 6 5 2 12 -4 7 -3 8 4 4 10 -6 16 4 14 25 -1 3
9 5 21 5 14 -1 22 5 21 15 -2 20 24 19 37 -2 8 -12 9 -12 7 1 -4 30 12 59 30
53 15 -6 16 -5 2 12 -11 14 -12 19 -3 22 7 3 14 3 15 1 2 -2 14 7 28 20 18 16
26 19 32 10 5 -9 8 -5 8 10 0 12 6 22 14 22 8 0 18 9 21 20 3 11 16 22 29 26
29 7 58 12 74 13 6 1 12 5 12 10 0 5 -8 8 -17 7 -10 0 -17 5 -15 12 2 14 -14
16 -23 2 -11 -18 -34 -11 -30 9 2 14 -1 18 -11 14 -7 -3 -12 -9 -9 -13 3 -5
-4 -6 -15 -3 -12 3 -20 0 -20 -6 0 -7 -5 -9 -10 -6 -8 5 -7 11 0 21 7 7 10 19
7 26 -4 8 -6 7 -6 -4 -1 -11 -6 -15 -16 -12 -18 7 -19 0 -5 -26 7 -13 7 -21 0
-25 -5 -3 -10 2 -10 11 0 10 -3 14 -7 10 -4 -4 -8 -15 -8 -23 0 -9 -7 -19 -15
-21 -13 -5 -13 -3 -1 11 7 10 10 17 6 17 -4 0 -2 7 6 16 10 13 10 17 -2 24 -8
5 -15 17 -15 27 -3 31 -21 69 -48 98 -20 21 -23 31 -16 50 31 82 9 183 -48
224 -29 20 -94 52 -117 57 -5 1 -28 7 -50 13 -22 6 -43 11 -47 11 -4 0 -27 8
-50 16 -24 8 -97 31 -163 50 -66 20 -158 47 -205 61 -47 14 -98 29 -115 33
-16 5 -84 25 -150 45 -66 20 -154 45 -195 56 -74 20 -221 34 -250 23z m1550
-804 c0 -5 -5 -10 -11 -10 -5 0 -7 5 -4 10 3 6 8 10 11 10 2 0 4 -4 4 -10z
m-155 -160 c-3 -5 -12 -10 -18 -10 -7 0 -6 4 3 10 19 12 23 12 15 0z m-585
-1054 c0 -2 -6 -9 -14 -15 -11 -9 -16 -9 -22 0 -4 8 -3 9 4 5 7 -4 12 -2 12 3
0 6 5 11 10 11 6 0 10 -2 10 -4z"/>
<path d="M2339 1643 c-13 -16 -12 -17 4 -4 16 13 21 21 13 21 -2 0 -10 -8 -17
-17z"/>
<path d="M2305 1440 c-3 -5 1 -10 10 -10 9 0 13 5 10 10 -3 6 -8 10 -10 10 -2
0 -7 -4 -10 -10z"/>
<path d="M2234 1335 c-4 -8 -11 -12 -18 -8 -6 3 -7 2 -3 -2 14 -16 33 -13 33
6 0 23 -5 24 -12 4z"/>
<path d="M2190 1321 c0 -6 4 -13 10 -16 6 -3 7 1 4 9 -7 18 -14 21 -14 7z"/>
<path d="M2155 1280 c-10 -11 -15 -23 -12 -27 4 -3 -1 -11 -10 -18 -13 -9 -13
-14 -3 -20 8 -5 11 -4 6 3 -7 11 28 27 42 18 5 -3 9 1 9 8 0 8 -8 11 -19 8
-10 -2 -18 1 -18 7 0 7 5 9 10 6 6 -4 10 -3 9 2 -3 20 2 27 11 13 8 -13 10
-12 10 3 0 23 -13 22 -35 -3z"/>
<path d="M2155 1219 c-4 -6 -5 -12 -2 -15 2 -3 7 2 10 11 7 17 1 20 -8 4z"/>
<path d="M2110 1180 c0 -5 5 -10 11 -10 5 0 7 5 4 10 -3 6 -8 10 -11 10 -2 0
-4 -4 -4 -10z"/>
<path d="M2145 1180 c-3 -6 1 -7 9 -4 18 7 21 14 7 14 -6 0 -13 -4 -16 -10z"/>
<path d="M2110 1138 c0 -4 4 -8 9 -8 6 0 12 4 15 8 3 5 -1 9 -9 9 -8 0 -15 -4
-15 -9z"/>
<path d="M2052 1078 c3 -7 16 -15 31 -19 16 -4 25 -3 21 2 -3 5 -14 9 -25 9
-11 0 -17 5 -14 10 3 6 1 10 -5 10 -7 0 -10 -5 -8 -12z"/>
<path d="M2066 1042 c-3 -5 1 -9 9 -9 8 0 12 4 9 9 -3 4 -7 8 -9 8 -2 0 -6 -4
-9 -8z"/>
<path d="M1967 956 c-4 -10 -1 -13 8 -9 8 3 12 9 9 14 -7 12 -11 11 -17 -5z"/>
<path d="M2016 935 c-9 -26 -7 -32 5 -12 6 10 9 21 6 23 -2 3 -7 -2 -11 -11z"/>
<path d="M1883 805 c-3 -9 -3 -19 1 -22 3 -4 6 2 6 11 0 12 5 16 16 12 8 -3
12 -2 9 4 -9 15 -25 12 -32 -5z"/>
<path d="M1894 763 c3 -3 17 -7 32 -9 14 -1 23 0 20 3 -3 4 -18 8 -32 9 -14 2
-24 0 -20 -3z"/>
<path d="M1852 733 c-15 -13 -15 -13 5 -4 18 9 22 8 25 -7 3 -14 5 -14 10 4 6
24 -14 28 -40 7z"/>
<path d="M1805 640 c-3 -6 1 -7 9 -4 18 7 21 14 7 14 -6 0 -13 -4 -16 -10z"/>
<path d="M1815 619 c-4 -5 2 -6 11 -2 12 4 15 3 10 -5 -10 -16 -1 -15 12 1 8
10 6 13 -8 14 -11 1 -22 -2 -25 -8z"/>
<path d="M1779 603 c-13 -16 -12 -17 4 -4 16 13 21 21 13 21 -2 0 -10 -8 -17
-17z"/>
<path d="M1813 565 c0 -8 4 -12 9 -9 5 3 6 10 3 15 -9 13 -12 11 -12 -6z"/>
<path d="M1779 553 c-13 -16 -12 -17 4 -4 16 13 21 21 13 21 -2 0 -10 -8 -17
-17z"/>
<path d="M1719 502 c-11 -14 -11 -15 0 -5 16 14 44 6 34 -11 -4 -6 1 -5 10 3
9 7 17 16 17 19 0 3 -3 2 -6 -1 -4 -3 -15 -2 -24 3 -13 7 -21 5 -31 -8z"/>
<path d="M1796 502 c-3 -5 1 -9 9 -9 8 0 12 4 9 9 -3 4 -7 8 -9 8 -2 0 -6 -4
-9 -8z"/>
<path d="M1730 481 c0 -6 4 -13 10 -16 6 -3 7 1 4 9 -7 18 -14 21 -14 7z"/>
<path d="M1681 396 c-9 -11 -8 -15 4 -20 10 -4 14 -2 9 5 -4 6 0 15 7 20 8 5
9 9 3 9 -6 0 -17 -6 -23 -14z"/>
<path d="M1715 391 c-3 -5 -2 -12 3 -15 5 -3 9 1 9 9 0 17 -3 19 -12 6z"/>
</g>
</svg>
